<svg width="1099" height="232" viewBox="0 0 1099 232" fill="none" xmlns="http://www.w3.org/2000/svg">
<path d="M913.29 142.76C899.77 142.76 885.22 133.96 885.22 114.66C885.22 105.77 888.41 98.33 894.46 93.14C900.149 88.4663 907.297 85.9361 914.66 85.99C928.15 86.71 942.66 95.99 942.66 114.66C942.66 133.08 928.66 142.73 914.76 142.73L913.29 142.76ZM913.8 92.12C899.32 92.12 891.51 103.73 891.51 114.66C891.51 129.3 902.99 137.2 913.8 137.2C924.8 137.2 936.42 129.3 936.42 114.66C936.42 103.46 928.65 92.12 913.8 92.12Z" fill="#1A1A1A"/>
<path d="M1022.46 141.88C1020.56 141.88 1019.46 140.64 1019.46 138.48V100.06L1001.02 123.4C1000.68 123.905 1000.24 124.331 999.72 124.652C999.203 124.973 998.623 125.18 998.02 125.26C997.451 125.181 996.906 124.977 996.425 124.663C995.945 124.348 995.54 123.93 995.24 123.44L978.24 99.44V138.44C978.234 138.906 978.134 139.366 977.945 139.793C977.756 140.219 977.483 140.602 977.142 140.92C976.801 141.238 976.399 141.483 975.96 141.641C975.522 141.8 975.055 141.867 974.59 141.84C972.99 141.84 971.95 140.5 971.95 138.44V90.75C971.896 89.9564 972.136 89.1706 972.625 88.5432C973.114 87.9159 973.817 87.491 974.6 87.35C975.87 87.35 976.66 87.99 978.03 89.5L998.53 117.25L1019.83 88.48C1020.11 88.1794 1020.44 87.9429 1020.82 87.7874C1021.2 87.6318 1021.6 87.561 1022.01 87.58C1022.43 87.5584 1022.84 87.6265 1023.23 87.7797C1023.62 87.9329 1023.97 88.1677 1024.26 88.4681C1024.55 88.7686 1024.77 89.1277 1024.91 89.5214C1025.05 89.915 1025.11 90.334 1025.07 90.75V138.48C1025.09 140.54 1024.06 141.88 1022.46 141.88Z" fill="#1A1A1A"/>
<path d="M1060.32 141.88C1059.88 141.884 1059.44 141.799 1059.03 141.628C1058.62 141.458 1058.24 141.206 1057.93 140.889C1057.62 140.571 1057.38 140.194 1057.22 139.78C1057.06 139.366 1056.99 138.924 1057 138.48V90.75C1056.99 89.8604 1057.34 89.0046 1057.96 88.3681C1058.58 87.7316 1059.43 87.3658 1060.32 87.35H1079.9C1089.1 87.35 1098.39 93.25 1098.39 106.43C1098.39 119.08 1088.8 124.84 1079.9 124.84H1063.29V138.48C1063.29 140.64 1062.21 141.88 1060.32 141.88ZM1063.32 119.14H1079.93C1083.27 119.078 1086.46 117.715 1088.81 115.342C1091.16 112.969 1092.5 109.772 1092.53 106.43C1092.53 99.1 1086.87 93.13 1079.91 93.13H1063.3L1063.32 119.14Z" fill="#1A1A1A"/>
<path d="M322.79 107.44V137.44C322.789 138.197 322.636 138.945 322.338 139.641C322.041 140.336 321.606 140.965 321.059 141.488C320.513 142.011 319.866 142.418 319.158 142.685C318.45 142.952 317.696 143.072 316.94 143.04C314.35 143.04 312.07 141.04 312.07 137.44V91.75C312.012 90.371 312.485 89.0223 313.391 87.9808C314.296 86.9394 315.566 86.2843 316.94 86.15C319.3 86.15 320.68 87.53 322.06 89.07L339.91 113.25L358.41 88.25C359.119 87.427 360.066 86.8435 361.12 86.5792C362.174 86.315 363.283 86.3829 364.297 86.7737C365.311 87.1646 366.179 87.8592 366.783 88.7626C367.387 89.6659 367.697 90.7338 367.67 91.82V137.51C367.67 141.08 365.39 143.11 362.8 143.11C359.88 143.11 357.6 141.11 357.6 137.51V107.51L344.13 124.51C341.21 128.09 337.56 128.09 334.88 124.51L322.79 107.44Z" fill="#1A1A1A"/>
<path d="M396.89 91.78C396.885 90.307 397.462 88.8916 398.496 87.8425C399.53 86.7934 400.937 86.1958 402.41 86.18H421.16C431.71 86.18 441.16 93.24 441.16 106.79C441.16 119.62 431.67 126.79 421.16 126.79H407.6V137.5C407.6 141.07 405.33 143.1 402.41 143.1C401.677 143.106 400.95 142.964 400.272 142.683C399.595 142.403 398.981 141.989 398.466 141.467C397.951 140.945 397.546 140.325 397.276 139.643C397.005 138.962 396.874 138.233 396.89 137.5V91.78ZM407.6 96.4V116.61H421.16C423.736 116.543 426.187 115.485 428.001 113.655C429.816 111.826 430.854 109.366 430.9 106.79C430.9 101.11 426.59 96.4 421.16 96.4H407.6Z" fill="#1A1A1A"/>
<path d="M496.24 143.88C481.24 144.53 465.64 134.55 465.64 114.66C465.64 94.77 481.22 84.88 496.24 84.88C510.44 85.61 525.29 95.43 525.29 114.66C525.29 133.89 510.44 143.88 496.24 143.88ZM495.34 95.43C486.25 95.43 476.34 101.84 476.34 114.66C476.34 127.48 486.24 133.9 495.34 133.9C504.67 133.9 514.66 127.41 514.66 114.66C514.66 101.91 504.67 95.43 495.34 95.43Z" fill="#1A1A1A"/>
<path d="M609.78 123.67L621.87 90.25C624.31 83.67 634.13 86.76 631.69 93.82L615.62 137.4C614.16 142.02 612.78 143.4 610.02 143.4C607.1 143.4 606.21 141.61 604.59 138.69L590.47 106.63L576.99 138.25C575.53 141.66 574.15 143.61 571.23 143.61C568.31 143.61 566.93 141.66 565.63 138.09L549.89 93.86C547.45 86.55 557.76 83.86 559.89 90.29L571.89 123.72L586.24 90.25C588.19 85.3 593.31 85.05 595.42 90L609.78 123.67Z" fill="#1A1A1A"/>
<path d="M668.06 137.79C668.06 144.86 657.27 145.1 657.27 137.96V91.86C657.257 91.213 657.373 90.57 657.612 89.9686C657.851 89.3673 658.208 88.8198 658.662 88.3586C659.115 87.8973 659.657 87.5315 660.254 87.2827C660.852 87.0339 661.493 86.9072 662.14 86.91H683.72C704.34 86.91 708.56 114.5 691.35 121.4L702.15 134.55C706.37 140.8 697.93 146.8 693.06 140.64L680.8 123.11H668.06V137.79ZM668.06 113.79H683.72C694.27 113.79 694.92 96.79 683.72 96.79H668.06V113.79Z" fill="#1A1A1A"/>
<path d="M735.59 143.07C732.91 143.07 729.99 141.61 729.99 138.07V91.97C729.99 89.05 732.91 86.97 735.59 86.97H754.18C791.26 86.97 790.45 143.13 754.91 143.13L735.59 143.07ZM740.7 96.81V133.17H754.18C776.09 133.17 777.06 96.81 754.18 96.81H740.7Z" fill="#1A1A1A"/>
<path d="M856.53 130.66C855.911 130.653 855.307 130.85 854.81 131.22C850.794 134.978 845.529 137.115 840.03 137.22C825.24 137.22 818.49 126.22 818.27 115.16C818.49 104.09 825.27 93.11 840.03 93.11C845.53 93.2098 850.797 95.3479 854.81 99.11C855.31 99.4723 855.913 99.6651 856.53 99.66C857.015 99.6682 857.496 99.5695 857.938 99.3707C858.381 99.1719 858.774 98.8781 859.09 98.51C859.72 97.65 860.49 95.85 858.39 93.75C855.37 90.9448 851.732 88.8894 847.77 87.75C846.419 87.3356 845.033 87.0444 843.63 86.88H843.3C842.907 86.8333 842.517 86.7933 842.13 86.76C841.42 86.71 840.72 86.68 840.03 86.68C839.03 86.68 838.03 86.73 837.08 86.8H836.8C835.88 86.89 834.99 87.01 834.12 87.16L833.74 87.23C832.91 87.38 832.1 87.57 831.32 87.79L830.79 87.93C830.07 88.14 829.38 88.38 828.7 88.64C828.44 88.73 828.19 88.84 827.94 88.94C827.37 89.18 826.81 89.43 826.26 89.7C825.9 89.88 825.56 90.07 825.26 90.26L824.62 90.63C821.701 92.3459 819.16 94.6352 817.15 97.36C816.85 97.76 816.56 98.16 816.29 98.57C816.15 98.79 816 99.02 815.87 99.24C813.026 103.872 811.53 109.205 811.55 114.64C811.55 114.84 811.55 115.02 811.55 115.21C811.55 115.4 811.55 115.59 811.55 115.78C811.53 121.215 813.026 126.548 815.87 131.18C816 131.41 816.15 131.63 816.29 131.85C816.56 132.26 816.85 132.67 817.15 133.06C819.157 135.787 821.699 138.077 824.62 139.79L825.26 140.16C825.61 140.36 825.95 140.55 826.26 140.73C826.807 141.003 827.367 141.253 827.94 141.48L828.7 141.79C829.38 142.05 830.07 142.28 830.79 142.49L831.32 142.64C832.1 142.85 832.91 143.04 833.74 143.2L834.12 143.26C834.99 143.41 835.88 143.54 836.8 143.62H837.08C838.08 143.7 839.02 143.75 840.03 143.75C840.697 143.75 841.397 143.72 842.13 143.66C842.52 143.66 842.91 143.59 843.3 143.55H843.63C845.033 143.377 846.418 143.083 847.77 142.67C851.73 141.527 855.368 139.472 858.39 136.67C860.49 134.57 859.72 132.76 859.09 131.9C858.781 131.518 858.391 131.208 857.949 130.994C857.506 130.78 857.022 130.666 856.53 130.66Z" fill="#1A1A1A"/>
<path d="M202.86 231.01C196.23 231.01 189.871 228.376 185.182 223.688C180.494 218.999 177.86 212.64 177.86 206.01V25.01C177.86 18.3796 180.494 12.0207 185.182 7.33234C189.871 2.64393 196.23 0.0100098 202.86 0.0100098C209.49 0.0100098 215.849 2.64393 220.538 7.33234C225.226 12.0207 227.86 18.3796 227.86 25.01V206.01C227.86 212.64 225.226 218.999 220.538 223.688C215.849 228.376 209.49 231.01 202.86 231.01Z" fill="url(#paint0_linear_1295_3774)"/>
<path d="M114.53 167.52C110.648 167.525 106.818 166.624 103.346 164.888C99.8737 163.152 96.8549 160.629 94.53 157.52L6.01998 40.04C2.03533 34.7431 0.317326 28.0805 1.24369 21.5172C2.17005 14.954 5.66495 9.02719 10.96 5.04001C16.2569 1.05536 22.9194 -0.662656 29.4827 0.263706C36.046 1.19007 41.9728 4.68498 45.96 9.98001L134.43 127.49C138.415 132.787 140.133 139.449 139.206 146.013C138.28 152.576 134.785 158.503 129.49 162.49C125.182 165.746 119.931 167.512 114.53 167.52Z" fill="url(#paint1_linear_1295_3774)"/>
<path d="M114.41 167.52C108.999 167.529 103.733 165.774 99.41 162.52C94.115 158.533 90.6201 152.606 89.6937 146.043C88.7673 139.479 90.4853 132.817 94.47 127.52L182.93 10C186.917 4.70497 192.844 1.21009 199.407 0.283728C205.971 -0.642634 212.633 1.07535 217.93 5.06C223.225 9.04718 226.72 14.9739 227.646 21.5372C228.573 28.1005 226.855 34.7631 222.87 40.06L134.4 157.56C132.068 160.656 129.048 163.168 125.579 164.896C122.11 166.625 118.286 167.523 114.41 167.52Z" fill="url(#paint2_linear_1295_3774)"/>
<path d="M26.02 231.01C19.3895 231.01 13.0307 228.376 8.34229 223.688C3.65388 218.999 1.01996 212.64 1.01996 206.01V25.01C1.01996 18.3796 3.65388 12.0207 8.34229 7.33234C13.0307 2.64393 19.3895 0.0100098 26.02 0.0100098C29.303 0.0100098 32.5539 0.656657 35.587 1.91302C38.6202 3.16939 41.3762 5.01087 43.6976 7.33234C46.0191 9.6538 47.8606 12.4098 49.1169 15.4429C50.3733 18.476 51.02 21.727 51.02 25.01V206.01C51.02 209.293 50.3733 212.544 49.1169 215.577C47.8606 218.61 46.0191 221.366 43.6976 223.688C41.3762 226.009 38.6202 227.851 35.587 229.107C32.5539 230.363 29.303 231.01 26.02 231.01Z" fill="url(#paint3_linear_1295_3774)"/>
<defs>
<linearGradient id="paint0_linear_1295_3774" x1="10994.4" y1="-87662.2" x2="10994.4" y2="-34056.3" gradientUnits="userSpaceOnUse">
<stop offset="0.01" stop-color="#1361BF"/>
<stop offset="1" stop-color="#1A83FF"/>
</linearGradient>
<linearGradient id="paint1_linear_1295_3774" x1="3442.95" y1="-62674.1" x2="23858.1" y2="-39534.8" gradientUnits="userSpaceOnUse">
<stop offset="0.01" stop-color="#1361BF"/>
<stop offset="1" stop-color="#1A83FF"/>
</linearGradient>
<linearGradient id="paint2_linear_1295_3774" x1="14333.9" y1="-49154.2" x2="33504.2" y2="-49154.2" gradientUnits="userSpaceOnUse">
<stop offset="0.01" stop-color="#1361BF"/>
<stop offset="1" stop-color="#1A83FF"/>
</linearGradient>
<linearGradient id="paint3_linear_1295_3774" x1="1975.52" y1="-33781.4" x2="1975.52" y2="-87708.4" gradientUnits="userSpaceOnUse">
<stop offset="0.01" stop-color="#1361BF"/>
<stop offset="1" stop-color="#1A83FF"/>
</linearGradient>
</defs>
</svg>
